<?xml version="1.0" encoding="utf-8"?>
<svg id="master-artboard" viewBox="0 0 2800 2000" version="1.1" xmlns="http://www.w3.org/2000/svg" x="0px" y="0px" width="2800px" height="2000px" style="enable-background:new 0 0 2800 2000;">

<path d="M 0 0 H 2800 V 2000 H 0 V 0 Z" class="st0" style="fill: rgb(127, 132, 173); fill-opacity: 0;" transform="matrix(1, 0, 0, 1, -1.5050339989594477, 0)"/>
<path d="M 1487.874725 1725.899292 A 88.124603 802.373291 0 0 1 1399.750122 2528.272583 A 88.124603 802.373291 0 0 1 1311.625519 1725.899292 A 88.124603 802.373291 0 0 1 1399.750122 923.526001 A 88.124603 802.373291 0 0 1 1487.874725 1725.899292 Z" transform="matrix(0.0195 -0.9998 0.9998 0.0195 -353.0995 3091.7495)" class="st1" style="fill: rgb(75, 83, 117);"/>
<path d="M 2202.472656 1707.983154 A 802.373291 97.850403 0 0 1 1400.099365 1805.833557 A 802.373291 97.850403 0 0 1 597.726074 1707.983154 A 802.373291 97.850403 0 0 1 1400.099365 1610.132751 A 802.373291 97.850403 0 0 1 2202.472656 1707.983154 Z" class="st2" style="fill: rgb(97, 104, 142);"/>
<path class="st2" d="M2129.5022,432.287h-123.1381c-9.5812,0-17.3765-7.7948-17.3765-17.376v-76.1059&#10;&#9;c0-9.5812,7.7953-17.376,17.3765-17.376h123.1381c9.5811,0,17.3755,7.7948,17.3755,17.376v76.1059&#10;&#9;C2146.8777,424.4922,2139.0833,432.287,2129.5022,432.287z M2006.3641,329.0397c-5.3851,0-9.7659,4.3807-9.7659,9.7654v76.1059&#10;&#9;c0,5.3846,4.3807,9.7654,9.7659,9.7654h123.1381c5.384,0,9.7649-4.3808,9.7649-9.7654v-76.1059&#10;&#9;c0-5.3846-4.3809-9.7654-9.7649-9.7654H2006.3641z" style="fill: rgb(97, 104, 142);"/>
<g>
	
		<path d="M 2105.905518 340.531586 H 2113.516017 V 376.863785 H 2105.905518 V 340.531586 Z" transform="matrix(0.7071 -0.7071 0.7071 0.7071 364.2952 1596.8689)" class="st2" style="fill: rgb(97, 104, 142);"/>
	
		<path d="M 2091.544678 354.892395 H 2127.876877 V 362.502895 H 2091.544678 V 354.892395 Z" transform="matrix(0.7072 -0.707 0.707 0.7072 364.1602 1596.6787)" class="st2" style="fill: rgb(97, 104, 142);"/>
</g>
<path class="st3" d="M820.5328,968.9932V372.6321c0-37.4994,30.3993-67.8987,67.8987-67.8987h-42.0347&#10;&#9;c-37.4995,0-67.8987,30.3993-67.8987,67.8987v596.3611c0,37.4993,30.3993,67.8987,67.8987,67.8987h42.0347&#10;&#9;C850.9321,1036.8918,820.5328,1006.4925,820.5328,968.9932z" style="fill: rgb(43, 79, 151);"/>
<linearGradient id="SVGID_1_" gradientUnits="userSpaceOnUse" x1="1878.8203" y1="303.959" x2="854.6528" y2="1041.0986">
	<stop offset="0" style="stop-color:#A9AFEB"/>
	<stop offset="1" style="stop-color:#BEC3E3"/>
</linearGradient>
<path class="st4" d="M1861.6029,1036.8918H876.6389c-37.4994,0-67.8987-30.3992-67.8987-67.8986v-596.361&#10;&#9;c0-37.4994,30.3993-67.8987,67.8987-67.8987h984.9641c37.4995,0,67.8988,30.3993,67.8988,67.8987v596.361&#10;&#9;C1929.5017,1006.4926,1899.1024,1036.8918,1861.6029,1036.8918z" style="fill: rgb(87, 133, 195);"/>
<path d="M 1902.9449462890625 721.5762939453125 L 1644.596923828125 721.5762939453125 L 1644.596923828125 717.2274169921875 L 1898.595947265625 717.2274169921875 L 1898.595947265625 398.4411926269531 L 2020.244384765625 398.4411926269531 L 2020.244384765625 402.79010009765625 L 1902.9449462890625 402.79010009765625 Z" class="st5" style="fill: rgb(239, 242, 249);"/>
<path class="st6" d="M1556.2313,659.0842h-60.1173l-6.7172-11.1398h-40.6876v21.2688v8.8112v48.9252&#10;&#9;c0,5.5941,4.535,10.1291,10.129,10.1291h97.3931c5.5941,0,10.129-4.535,10.129-10.1291v-57.7363&#10;&#9;C1566.3604,663.6191,1561.8254,659.0842,1556.2313,659.0842z" style="fill: rgb(152, 161, 216);"/>
<g>
	<path class="st5" d="M1575.3711,653.562c-9.8667,0-17.8936-8.0273-17.8936-17.8941c0-9.8668,8.0269-17.8942,17.8936-17.8942&#10;&#9;&#9;c9.8668,0,17.8937,8.0273,17.8937,17.8942C1593.2648,645.5347,1585.2379,653.562,1575.3711,653.562z M1575.3711,621.0355&#10;&#9;&#9;c-8.0681,0-14.6318,6.5642-14.6318,14.6324c0,8.0682,6.5637,14.6324,14.6318,14.6324c8.0682,0,14.632-6.5642,14.632-14.6324&#10;&#9;&#9;C1590.0031,627.5997,1583.4393,621.0355,1575.3711,621.0355z" style="fill: rgb(239, 242, 249);"/>
	<g>
		
			<path d="M 1565.450317 634.036926 H 1585.291918 V 637.298226 H 1565.450317 V 634.036926 Z" transform="matrix(0.7071 -0.7071 0.7071 0.7071 11.9306 1300.1383)" class="st5" style="fill: rgb(239, 242, 249);"/>
		
			<path d="M 1573.740479 625.746826 H 1577.001779 V 645.588427 H 1573.740479 V 625.746826 Z" transform="matrix(0.7071 -0.7071 0.7071 0.7071 11.9181 1300.1088)" class="st5" style="fill: rgb(239, 242, 249);"/>
	</g>
</g>
<g>
	<path class="st5" d="M1218.0992,696.5457c-14.5751,0-26.4331-11.8581-26.4331-26.4337c0-14.5751,11.858-26.4332,26.4331-26.4332&#10;&#9;&#9;c14.5757,0,26.4338,11.8581,26.4338,26.4332C1244.5331,684.6876,1232.6749,696.5457,1218.0992,696.5457z M1218.0992,648.0276&#10;&#9;&#9;c-12.1771,0-22.0842,9.9072-22.0842,22.0843c0,12.1777,9.9071,22.0848,22.0842,22.0848c12.1777,0,22.0848-9.9072,22.0848-22.0848&#10;&#9;&#9;C1240.1841,657.9348,1230.277,648.0276,1218.0992,648.0276z" style="fill: rgb(239, 242, 249);"/>
	<path class="st5" d="M1218.0992,721.5763c-28.3777,0-51.4644-23.0865-51.4644-51.4644c0-28.3777,23.0867-51.4644,51.4644-51.4644&#10;&#9;&#9;c28.3778,0,51.465,23.0866,51.465,51.4644C1269.5642,698.4897,1246.4771,721.5763,1218.0992,721.5763z M1218.0992,622.9965&#10;&#9;&#9;c-25.9792,0-47.1154,21.1361-47.1154,47.1154s21.1361,47.1155,47.1154,47.1155c25.9799,0,47.1161-21.1362,47.1161-47.1155&#10;&#9;&#9;S1244.0791,622.9965,1218.0992,622.9965z" style="fill: rgb(239, 242, 249);"/>
	<path class="st5" d="M1218.0992,751.269c-44.7504,0-81.1571-36.4067-81.1571-81.1571s36.4067-81.1571,81.1571-81.1571&#10;&#9;&#9;c44.7505,0,81.1577,36.4067,81.1577,81.1571S1262.8497,751.269,1218.0992,751.269z M1218.0992,593.3037&#10;&#9;&#9;c-42.3519,0-76.8081,34.4563-76.8081,76.8082s34.4562,76.8082,76.8081,76.8082c42.3525,0,76.8088-34.4563,76.8088-76.8082&#10;&#9;&#9;S1260.4518,593.3037,1218.0992,593.3037z" style="fill: rgb(239, 242, 249);"/>
</g>
<g>
	<path class="st5" d="M1194.9512,1110.9373h-32.9337v-2.1744h32.9337c12.1644,0,22.0609-9.8965,22.0609-22.0609V769.5481h2.1744&#10;&#9;&#9;v317.1538C1219.1865,1100.0649,1208.3148,1110.9373,1194.9512,1110.9373z" style="fill: rgb(239, 242, 249);"/>
	<path d="M 1224.53301 769.548096 A 6.4334 6.4334 0 0 1 1218.099609 775.981496 A 6.4334 6.4334 0 0 1 1211.666209 769.548096 A 6.4334 6.4334 0 0 1 1218.099609 763.114696 A 6.4334 6.4334 0 0 1 1224.53301 769.548096 Z" class="st5" style="fill: rgb(239, 242, 249);"/>
	<path d="M 1169.356229 1109.849976 A 6.4335 6.4335 0 0 1 1162.922729 1116.283475 A 6.4335 6.4335 0 0 1 1156.48923 1109.849976 A 6.4335 6.4335 0 0 1 1162.922729 1103.416476 A 6.4335 6.4335 0 0 1 1169.356229 1109.849976 Z" class="st5" style="fill: rgb(239, 242, 249);"/>
</g>
<path d="M 856.626282 404.753204 H 1214.674469 V 416.328704 H 856.626282 V 404.753204 Z" class="st7" style="fill: rgb(218, 225, 242);"/>
<path d="M 1232.525146 404.753204 H 1244.628647 V 416.328704 H 1232.525146 V 404.753204 Z" class="st7" style="fill: rgb(218, 225, 242);"/>
<g>
	<path d="M 1252.663818 926.547485 H 1314.610519 V 939.114585 H 1252.663818 V 926.547485 Z" class="st6" style="fill: rgb(152, 161, 216);"/>
	<path d="M 1252.663818 948.355286 H 1362.334816 V 960.922385 H 1252.663818 V 948.355286 Z" class="st6" style="fill: rgb(152, 161, 216);"/>
	<path d="M 1252.663818 970.163086 H 1336.41832 V 982.730186 H 1252.663818 V 970.163086 Z" class="st6" style="fill: rgb(152, 161, 216);"/>
	<path d="M 1252.663818 991.970825 H 1295.963318 V 1004.537925 H 1252.663818 V 991.970825 Z" class="st6" style="fill: rgb(152, 161, 216);"/>
</g>
<g>
	<path class="st5" d="M989.7723,489.4107l26.7496-13.7783v3.9778l-22.5409,11.2991v0.1157l22.5409,11.2991v3.9778l-26.7496-13.7783&#10;&#9;&#9;V489.4107z" style="fill: rgb(239, 242, 249);"/>
	<path class="st5" d="M1020.2715,508.6081l16.0844-41.7961h3.92l-16.1417,41.7961H1020.2715z" style="fill: rgb(239, 242, 249);"/>
	<path class="st5" d="M1070.6587,492.5816l-26.7495,13.7204v-3.9778l22.7139-11.2991v-0.1157l-22.7139-11.2991v-3.9778&#10;&#9;&#9;l26.7495,13.7204V492.5816z" style="fill: rgb(239, 242, 249);"/>
</g>
<g>
	<path class="st2" d="M770.4526,1053.9839h-29.4432c-2.0938,0-3.7908,1.6971-3.7908,3.7909v8.9602&#10;&#9;&#9;c0,2.0938,1.6971,3.7908,3.7908,3.7908h29.4432c2.0938,0,3.7909-1.697,3.7909-3.7908v-8.9602&#10;&#9;&#9;C774.2435,1055.681,772.5464,1053.9839,770.4526,1053.9839z" style="fill: rgb(97, 104, 142);"/>
	<path class="st2" d="M828.9619,1083.162h-87.9525c-2.0938,0-3.7908,1.697-3.7908,3.7908v8.9602&#10;&#9;&#9;c0,2.0938,1.6971,3.7909,3.7908,3.7909h87.9525c2.0938,0,3.7909-1.6971,3.7909-3.7909v-8.9602&#10;&#9;&#9;C832.7528,1084.859,831.0557,1083.162,828.9619,1083.162z" style="fill: rgb(97, 104, 142);"/>
	<path class="st2" d="M828.9619,1112.34h-87.9525c-2.0938,0-3.7908,1.6971-3.7908,3.7909v8.9602&#10;&#9;&#9;c0,2.0938,1.6971,3.7909,3.7908,3.7909h87.9525c2.0938,0,3.7909-1.6971,3.7909-3.7909v-8.9602&#10;&#9;&#9;C832.7528,1114.0371,831.0557,1112.34,828.9619,1112.34z" style="fill: rgb(97, 104, 142);"/>
	<path class="st2" d="M860.9736,1112.34h-12.9014c-2.0938,0-3.7909,1.6971-3.7909,3.7909v8.9602&#10;&#9;&#9;c0,2.0938,1.6971,3.7909,3.7909,3.7909h12.9014c2.0938,0,3.7908-1.6971,3.7908-3.7909v-8.9602&#10;&#9;&#9;C864.7644,1114.0371,863.0673,1112.34,860.9736,1112.34z" style="fill: rgb(97, 104, 142);"/>
	<path class="st2" d="M815.177,1141.5181h-74.1676c-2.0938,0-3.7908,1.6971-3.7908,3.7909v8.9602&#10;&#9;&#9;c0,2.0938,1.6971,3.7908,3.7908,3.7908h74.1676c2.0938,0,3.7909-1.697,3.7909-3.7908v-8.9602&#10;&#9;&#9;C818.9679,1143.2152,817.2708,1141.5181,815.177,1141.5181z" style="fill: rgb(97, 104, 142);"/>
</g>
<g>
	<path class="st2" d="M1957.6686,1166.9387h-48.5535c-2.0938,0-3.7909,1.6971-3.7909,3.7909v8.9602&#10;&#9;&#9;c0,2.0938,1.6971,3.7909,3.7909,3.7909h48.5535c2.0938,0,3.7909-1.6971,3.7909-3.7909v-8.9602&#10;&#9;&#9;C1961.4595,1168.6359,1959.7623,1166.9387,1957.6686,1166.9387z" style="fill: rgb(97, 104, 142);"/>
	<path class="st2" d="M1997.0676,1196.1168h-87.9525c-2.0938,0-3.7909,1.6971-3.7909,3.7909v8.9602&#10;&#9;&#9;c0,2.0938,1.6971,3.7908,3.7909,3.7908h87.9525c2.0938,0,3.7909-1.697,3.7909-3.7908v-8.9602&#10;&#9;&#9;C2000.8585,1197.814,1999.1614,1196.1168,1997.0676,1196.1168z" style="fill: rgb(97, 104, 142);"/>
	<path class="st2" d="M1942.3492,1225.2949h-33.2341c-2.0938,0-3.7909,1.697-3.7909,3.7908v8.9602&#10;&#9;&#9;c0,2.0938,1.6971,3.7909,3.7909,3.7909h33.2341c2.0938,0,3.7908-1.6971,3.7908-3.7909v-8.9602&#10;&#9;&#9;C1946.14,1226.9919,1944.443,1225.2949,1942.3492,1225.2949z" style="fill: rgb(97, 104, 142);"/>
	<path class="st2" d="M1974.3608,1225.2949h-12.9014c-2.0938,0-3.7909,1.697-3.7909,3.7908v8.9602&#10;&#9;&#9;c0,2.0938,1.6971,3.7909,3.7909,3.7909h12.9014c2.0938,0,3.7908-1.6971,3.7908-3.7909v-8.9602&#10;&#9;&#9;C1978.1516,1226.9919,1976.4546,1225.2949,1974.3608,1225.2949z" style="fill: rgb(97, 104, 142);"/>
	<path class="st2" d="M1983.2827,1254.4729h-74.1676c-2.0938,0-3.7909,1.6971-3.7909,3.7909v8.9602&#10;&#9;&#9;c0,2.0938,1.6971,3.7908,3.7909,3.7908h74.1676c2.0938,0,3.7909-1.697,3.7909-3.7908v-8.9602&#10;&#9;&#9;C1987.0736,1256.17,1985.3765,1254.4729,1983.2827,1254.4729z" style="fill: rgb(97, 104, 142);"/>
	<path class="st2" d="M2030.3254,1254.4729h-25.6761c-2.0938,0-3.7908,1.6971-3.7908,3.7909v8.9602&#10;&#9;&#9;c0,2.0938,1.697,3.7908,3.7908,3.7908h25.6761c2.0939,0,3.7909-1.697,3.7909-3.7908v-8.9602&#10;&#9;&#9;C2034.1163,1256.17,2032.4193,1254.4729,2030.3254,1254.4729z" style="fill: rgb(97, 104, 142);"/>
</g>
<g>
	<path class="st5" d="M1445.1577,540.6237c-7.1594,0-14.2041-0.5754-20.3728-1.6638c-14.3229-2.5068-22.5387-7.3127-22.5387-13.1858&#10;&#9;&#9;c0-9.749,21.5874-14.8501,42.9115-14.8501s42.9115,5.1011,42.9115,14.8501c0,5.873-8.2158,10.6796-22.542,13.1863&#10;&#9;&#9;C1459.3617,540.0482,1452.317,540.6237,1445.1577,540.6237z M1445.1577,515.2729c-23.8925,0-38.5626,6.1161-38.5626,10.5012&#10;&#9;&#9;c0,2.7765,6.5063,6.7261,18.9426,8.9022c5.9266,1.0458,12.7101,1.5984,19.62,1.5984c6.9098,0,13.6932-0.5527,19.6168-1.598&#10;&#9;&#9;c12.4393-2.1766,18.9457-6.1257,18.9457-8.9027C1483.7202,521.3891,1469.0502,515.2729,1445.1577,515.2729z" style="fill: rgb(239, 242, 249);"/>
	<path class="st5" d="M1445.1577,562.7128c-7.1563,0-14.2009-0.5755-20.3728-1.6638c-14.3229-2.519-22.5387-7.325-22.5387-13.1863&#10;&#9;&#9;v-22.0886h4.3489c0,2.7765,6.5063,6.7261,18.9426,8.9022c5.9266,1.0458,12.7101,1.5984,19.62,1.5984&#10;&#9;&#9;c6.9098,0,13.6932-0.5527,19.6168-1.598c12.4393-2.1766,18.9457-6.1257,18.9457-8.9027h4.349v22.0886&#10;&#9;&#9;c0,5.8613-8.2158,10.6674-22.5398,13.1863C1459.3585,562.1373,1452.3138,562.7128,1445.1577,562.7128z M1406.5951,532.6314v15.2313&#10;&#9;&#9;c0,2.769,6.5074,6.7161,18.9447,8.9033c5.9277,1.0453,12.7112,1.5979,19.6179,1.5979c6.9066,0,13.6901-0.5526,19.6168-1.5979&#10;&#9;&#9;c12.4382-2.1872,18.9457-6.1343,18.9457-8.9033v-15.2313c-3.8021,2.7085-9.9973,4.8946-18.193,6.329&#10;&#9;&#9;c-6.1655,1.0878-13.2102,1.6632-20.3695,1.6632c-7.1594,0-14.2041-0.5754-20.3728-1.6638&#10;&#9;&#9;C1416.5925,537.526,1410.3972,535.3394,1406.5951,532.6314z" style="fill: rgb(239, 242, 249);"/>
	<path class="st5" d="M1445.1577,584.7912c-7.0894,0-14.0629-0.5649-20.1816-1.6335l-0.1785-0.0297&#10;&#9;&#9;c-14.3314-2.5079-22.5514-7.3144-22.5514-13.1863v-22.079h4.3489c0,2.769,6.5074,6.7161,18.9447,8.9033&#10;&#9;&#9;c5.9277,1.0453,12.7112,1.5979,19.6179,1.5979c6.9066,0,13.6901-0.5526,19.6168-1.5979&#10;&#9;&#9;c12.4382-2.1872,18.9457-6.1343,18.9457-8.9033h4.349v22.079c0,5.8719-8.219,10.6785-22.5504,13.1863l-0.1943,0.0323&#10;&#9;&#9;C1459.2098,584.2274,1452.2417,584.7912,1445.1577,584.7912z M1425.3625,578.8115l0.1964,0.0334&#10;&#9;&#9;c5.9149,1.0447,12.692,1.5974,19.5988,1.5974c6.9077,0,13.6848-0.5526,19.5997-1.5974l0.1964-0.0334&#10;&#9;&#9;c12.3217-2.184,18.7664-6.1077,18.7664-8.8698v-15.2302c-3.8021,2.7075-9.9973,4.8968-18.1908,6.3376&#10;&#9;&#9;c-6.1709,1.0883-13.2156,1.6638-20.3717,1.6638c-7.1563,0-14.2009-0.5755-20.3728-1.6638&#10;&#9;&#9;c-8.1935-1.4408-14.3877-3.6307-18.1898-6.3376v15.2302C1406.5951,572.7037,1413.0399,576.628,1425.3625,578.8115z" style="fill: rgb(239, 242, 249);"/>
	<path class="st5" d="M1445.1577,606.8798c-21.3241,0-42.9115-5.1006-42.9115-14.8496v-22.0885h4.3489&#10;&#9;&#9;c0,2.7621,6.4448,6.6863,18.7675,8.8698l0.1964,0.0329c5.9149,1.0453,12.692,1.5979,19.5988,1.5979&#10;&#9;&#9;c6.9077,0,13.6848-0.5526,19.5997-1.5979l0.1964-0.0329c12.3217-2.184,18.7664-6.1077,18.7664-8.8698h4.349v22.0885&#10;&#9;&#9;C1488.0692,601.7791,1466.4818,606.8798,1445.1577,606.8798z M1406.5951,576.7968v15.2333&#10;&#9;&#9;c0,4.3845,14.6702,10.5007,38.5626,10.5007s38.5625-6.1161,38.5625-10.5007v-15.2333c-3.8031,2.709-10.0016,4.8962-18.2014,6.3312&#10;&#9;&#9;l-0.1943,0.0323c-6.1146,1.0671-13.0828,1.6309-20.1667,1.6309c-7.0894,0-14.0629-0.5649-20.1816-1.6335l-0.1785-0.0297&#10;&#9;&#9;C1416.5978,581.6931,1410.3983,579.5059,1406.5951,576.7968z" style="fill: rgb(239, 242, 249);"/>
</g>
<path class="st6" d="M1432.0032,380.5741h-6.0203c-1.0232-10.0798-7.6294-18.5091-16.6826-22.115&#10;&#9;c-0.0004-0.0002-0.0007-0.0003-0.0007-0.0003c0.1006-1.1475,0.1617-2.3063,0.1617-3.4798c0-21.6426-17.5448-39.1875-39.1874-39.1875&#10;&#9;c-19.7166,0-36.026,14.5629-38.7739,33.5178c0,0-0.0006,0.0001-0.0011,0.0002c-15.8514,2.939-28.3417,15.4237-31.3099,31.2647&#10;&#9;h-7.6561c-6.7294,0-12.1847,5.4744-12.1847,12.2274c0,6.753,5.4553,12.2275,12.1847,12.2275h139.4703&#10;&#9;c6.7294,0,12.1847-5.4745,12.1847-12.2275C1444.1879,386.0485,1438.7325,380.5741,1432.0032,380.5741z" style="fill: rgb(152, 161, 216);"/>
<path d="M 1450.621266 494.143494 A 6.4334 6.4334 0 0 1 1444.187866 500.576894 A 6.4334 6.4334 0 0 1 1437.754466 494.143494 A 6.4334 6.4334 0 0 1 1444.187866 487.710093 A 6.4334 6.4334 0 0 1 1450.621266 494.143494 Z" class="st5" style="fill: rgb(239, 242, 249);"/>
<path d="M 1367.100514 422.762207 A 6.4334 6.4334 0 0 1 1360.667114 429.195607 A 6.4334 6.4334 0 0 1 1354.233714 422.762207 A 6.4334 6.4334 0 0 1 1360.667114 416.328807 A 6.4334 6.4334 0 0 1 1367.100514 422.762207 Z" class="st5" style="fill: rgb(239, 242, 249);"/>
<path d="M 1445.2755126953125 494.1437072753906 L 1443.10107421875 494.1437072753906 L 1443.10107421875 460.2320861816406 L 1359.5799560546875 460.2320861816406 L 1359.5799560546875 422.7619934082031 L 1361.75439453125 422.7619934082031 L 1361.75439453125 458.0575866699219 L 1445.2755126953125 458.0575866699219 Z" class="st5" style="fill: rgb(239, 242, 249);"/>
<g>
	<path class="st3" d="M1091.3826,1229.1627H932.0828c-13.3544,0-24.1803-10.8259-24.1803-24.1803V998.4093&#10;&#9;&#9;c0-13.3544,10.8259-24.1803,24.1803-24.1803h159.2997c13.3544,0,24.1803,10.8259,24.1803,24.1803v206.5731&#10;&#9;&#9;C1115.5629,1218.3368,1104.7369,1229.1627,1091.3826,1229.1627z" style="fill: rgb(96, 105, 160);" transform="matrix(1, 0, 0, 1, -1.5050339989594477, 0)"/>
	<linearGradient id="SVGID_2_" gradientUnits="userSpaceOnUse" x1="1030.2156" y1="973.6539" x2="1030.2156" y2="1222.313">
		<stop offset="0" style="stop-color:#C2C7F5"/>
		<stop offset="0.0354" style="stop-color:#C5CAF6"/>
		<stop offset="0.2869" style="stop-color:#D4D9FB"/>
		<stop offset="0.5781" style="stop-color:#DDE2FE"/>
		<stop offset="1" style="stop-color:#E0E5FF"/>
	</linearGradient>
	<path class="st8" d="M1109.8654,1229.1627H950.5657c-13.3544,0-24.1804-10.8259-24.1804-24.1803V998.4093&#10;&#9;&#9;c0-13.3544,10.8259-24.1803,24.1804-24.1803h159.2996c13.3545,0,24.1803,10.8259,24.1803,24.1803v206.5731&#10;&#9;&#9;C1134.0457,1218.3368,1123.2198,1229.1627,1109.8654,1229.1627z" style="fill: url('#SVGID_2_');" transform="matrix(1, 0, 0, 1, -1.5050339989594477, 0)"/>
	<g>
		<path class="st9" d="M1062.5363,1005.748H953.8135c-2.4019,0-4.3489,1.9471-4.3489,4.3489v11.4159&#10;&#9;&#9;&#9;c0,2.4018,1.947,4.3489,4.3489,4.3489h108.7227c2.4019,0,4.3489-1.9471,4.3489-4.3489v-11.4159&#10;&#9;&#9;&#9;C1066.8851,1007.6951,1064.9381,1005.748,1062.5363,1005.748z" style="fill: rgb(163, 170, 229);" transform="matrix(1, 0, 0, 1, -1.5050339989594477, 0)"/>
		<path class="st9" d="M1054.9257,1048.6935H953.8135c-2.4019,0-4.3489,1.9471-4.3489,4.349v11.4159&#10;&#9;&#9;&#9;c0,2.4017,1.947,4.3489,4.3489,4.3489h101.1121c2.4019,0,4.3489-1.9471,4.3489-4.3489v-11.4159&#10;&#9;&#9;&#9;C1059.2745,1050.6406,1057.3275,1048.6935,1054.9257,1048.6935z" style="fill: rgb(163, 170, 229);" transform="matrix(1, 0, 0, 1, -1.5050339989594477, 0)"/>
		<path class="st9" d="M1034.8119,1091.639h-80.9984c-2.4019,0-4.3489,1.947-4.3489,4.3489v11.4159&#10;&#9;&#9;&#9;c0,2.4017,1.947,4.3489,4.3489,4.3489h80.9984c2.4019,0,4.349-1.9471,4.349-4.3489v-11.4159&#10;&#9;&#9;&#9;C1039.1609,1093.5861,1037.2137,1091.639,1034.8119,1091.639z" style="fill: rgb(163, 170, 229);" transform="matrix(1, 0, 0, 1, -1.5050339989594477, 0)"/>
		<path class="st9" d="M1002.1951,1134.5845h-48.3816c-2.4019,0-4.3489,1.947-4.3489,4.3489v11.4159&#10;&#9;&#9;&#9;c0,2.4017,1.947,4.3489,4.3489,4.3489h48.3816c2.4019,0,4.3489-1.9471,4.3489-4.3489v-11.4159&#10;&#9;&#9;&#9;C1006.544,1136.5315,1004.597,1134.5845,1002.1951,1134.5845z" style="fill: rgb(163, 170, 229);" transform="matrix(1, 0, 0, 1, -1.5050339989594477, 0)"/>
		<path class="st9" d="M1062.5363,1177.5299H953.8135c-2.4019,0-4.3489,1.947-4.3489,4.3489v11.4159&#10;&#9;&#9;&#9;c0,2.4019,1.947,4.3489,4.3489,4.3489h108.7227c2.4019,0,4.3489-1.947,4.3489-4.3489v-11.4159&#10;&#9;&#9;&#9;C1066.8851,1179.4769,1064.9381,1177.5299,1062.5363,1177.5299z" style="fill: rgb(163, 170, 229);" transform="matrix(1, 0, 0, 1, -1.5050339989594477, 0)"/>
	</g>
</g>
<g>
	<path d="M 986.950623 654.09552 H 989.243123 V 900.185516 H 986.950623 V 654.09552 Z" class="st5" style="fill: rgb(239, 242, 249);"/>
	<path class="st0" d="M1017.6996,633.669h-59.2061c-2.7034,0-4.8948,2.1915-4.8948,4.8948v19.3&#10;&#9;&#9;c0,2.7033,2.1915,4.8948,4.8948,4.8948h59.2061c2.7034,0,4.8948-2.1915,4.8948-4.8948v-19.3&#10;&#9;&#9;C1022.5944,635.8605,1020.403,633.669,1017.6996,633.669z" style="fill: rgb(127, 132, 173);"/>
	<path class="st0" d="M1017.6996,892.4407h-59.2061c-2.7034,0-4.8948,2.1915-4.8948,4.8948v19.3&#10;&#9;&#9;c0,2.7033,2.1915,4.8948,4.8948,4.8948h59.2061c2.7034,0,4.8948-2.1915,4.8948-4.8948v-19.3&#10;&#9;&#9;C1022.5944,894.6322,1020.403,892.4407,1017.6996,892.4407z" style="fill: rgb(127, 132, 173);"/>
	<path class="st7" d="M1017.6996,804.6609h-59.2061c-2.7034,0-4.8948,2.1915-4.8948,4.8948v19.3001&#10;&#9;&#9;c0,2.7033,2.1915,4.8948,4.8948,4.8948h59.2061c2.7034,0,4.8948-2.1915,4.8948-4.8948v-19.3001&#10;&#9;&#9;C1022.5944,806.8524,1020.403,804.6609,1017.6996,804.6609z" style="fill: rgb(218, 225, 242);"/>
	<path d="M 1079.8214111328125 871.3604736328125 L 988.0968017578125 871.3604736328125 L 988.0968017578125 869.0679931640625 L 1077.5289306640625 869.0679931640625 L 1077.5289306640625 729.1317138671875 L 927.0848999023438 729.1317138671875 L 927.0848999023438 726.8391723632812 L 1079.8214111328125 726.8391723632812 Z" class="st5" style="fill: rgb(239, 242, 249);"/>
	<path class="st7" d="M1104.0782,715.5043h-50.8055c-2.3198,0-4.2003,1.8805-4.2003,4.2003v16.5616&#10;&#9;&#9;c0,2.3197,1.8805,4.2003,4.2003,4.2003h50.8055c2.3197,0,4.2003-1.8806,4.2003-4.2003v-16.5616&#10;&#9;&#9;C1108.2786,717.3848,1106.3979,715.5043,1104.0782,715.5043z" style="fill: rgb(218, 225, 242);"/>
	<path class="st7" d="M935.3527,715.5043h-50.8055c-2.3198,0-4.2003,1.8805-4.2003,4.2003v16.5616&#10;&#9;&#9;c0,2.3197,1.8805,4.2003,4.2003,4.2003h50.8055c2.3198,0,4.2003-1.8806,4.2003-4.2003v-16.5616&#10;&#9;&#9;C939.553,717.3848,937.6725,715.5043,935.3527,715.5043z" style="fill: rgb(218, 225, 242);"/>
	
		<path d="M 967.189087 707.078003 H 1009.003887 V 748.892803 H 967.189087 V 707.078003 Z" transform="matrix(0.7071 -0.7071 0.7071 0.7071 -225.3565 911.9127)" class="st9" style="fill: rgb(163, 170, 229);"/>
</g>
<g>
	<path class="st10" d="M812.7073,584.4232H655.2779c-13.1976,0-23.8964-10.6988-23.8964-23.8964V356.3789&#10;&#9;&#9;c0-13.1977,10.6988-23.8965,23.8964-23.8965h157.4294c13.1976,0,23.8964,10.6988,23.8964,23.8965v204.1479&#10;&#9;&#9;C836.6038,573.7244,825.905,584.4232,812.7073,584.4232z" style="fill: rgb(226, 232, 247);"/>
	<path class="st3" d="M647.4984,371.2215v189.3053c0,4.2894,3.4899,7.7794,7.7794,7.7794h157.4297&#10;&#9;&#9;c4.2895,0,7.7794-3.4899,7.7794-7.7794V371.2215H647.4984z" style="fill: rgb(87, 134, 195);"/>
	<g>
		<path d="M 670.194723 352.955688 A 7.5212 7.5212 0 0 1 662.673523 360.476889 A 7.5212 7.5212 0 0 1 655.152323 352.955688 A 7.5212 7.5212 0 0 1 662.673523 345.434488 A 7.5212 7.5212 0 0 1 670.194723 352.955688 Z" class="st11" style="fill: rgb(211, 117, 173);"/>
		<path d="M 695.713217 352.955688 A 7.5212 7.5212 0 0 1 688.192017 360.476889 A 7.5212 7.5212 0 0 1 680.670816 352.955688 A 7.5212 7.5212 0 0 1 688.192017 345.434488 A 7.5212 7.5212 0 0 1 695.713217 352.955688 Z" class="st12" style="fill: rgb(148, 196, 116);"/>
		<path d="M 721.23171 352.955688 A 7.5212 7.5212 0 0 1 713.71051 360.476889 A 7.5212 7.5212 0 0 1 706.18931 352.955688 A 7.5212 7.5212 0 0 1 713.71051 345.434488 A 7.5212 7.5212 0 0 1 721.23171 352.955688 Z" class="st13" style="fill: rgb(204, 193, 109);"/>
	</g>
	<g>
		<path d="M 662.27063 393.329498 H 704.488029 V 403.357899 H 662.27063 V 393.329498 Z" class="st7" style="fill: rgb(218, 225, 242);"/>
		<path d="M 662.27063 413.735199 H 752.122528 V 423.763599 H 662.27063 V 413.735199 Z" class="st7" style="fill: rgb(218, 225, 242);"/>
		<path d="M 762.911926 413.735199 H 798.324425 V 423.763599 H 762.911926 V 413.735199 Z" class="st13" style="fill: rgb(204, 193, 109);"/>
		<path d="M 662.27063 434.140991 H 688.19203 V 444.169392 H 662.27063 V 434.140991 Z" class="st11" style="fill: rgb(211, 117, 173);"/>
		<path d="M 699.473877 434.140991 H 728.842478 V 444.169392 H 699.473877 V 434.140991 Z" class="st9" style="fill: rgb(163, 170, 229);"/>
		<path d="M 733.992615 434.140991 H 789.279816 V 444.169392 H 733.992615 V 434.140991 Z" class="st7" style="fill: rgb(218, 225, 242);"/>
		<path d="M 662.27063 454.546814 H 704.488029 V 464.575214 H 662.27063 V 454.546814 Z" class="st12" style="fill: rgb(148, 196, 116);"/>
		<path d="M 686.087891 474.952515 H 709.502192 V 484.980915 H 686.087891 V 474.952515 Z" class="st7" style="fill: rgb(218, 225, 242);"/>
		<path d="M 716.598083 474.952515 H 769.313885 V 484.980915 H 716.598083 V 474.952515 Z" class="st9" style="fill: rgb(163, 170, 229);"/>
		<path d="M 778.558777 474.952515 H 802.264076 V 484.980915 H 778.558777 V 474.952515 Z" class="st13" style="fill: rgb(204, 193, 109);"/>
		<path d="M 686.087891 495.358307 H 721.231792 V 505.386707 H 686.087891 V 495.358307 Z" class="st11" style="fill: rgb(211, 117, 173);"/>
		<path d="M 725.927673 495.358307 H 739.766273 V 505.386707 H 725.927673 V 495.358307 Z" class="st13" style="fill: rgb(204, 193, 109);"/>
		<path d="M 747.036377 495.358307 H 774.328077 V 505.386707 H 747.036377 V 495.358307 Z" class="st7" style="fill: rgb(218, 225, 242);"/>
		<path d="M 781.690186 495.358307 H 799.132685 V 505.386707 H 781.690186 V 495.358307 Z" class="st7" style="fill: rgb(218, 225, 242);"/>
		<path d="M 686.087891 515.763977 H 709.502192 V 525.792377 H 686.087891 V 515.763977 Z" class="st7" style="fill: rgb(218, 225, 242);"/>
		<path d="M 717.135376 515.763977 H 740.549677 V 525.792377 H 717.135376 V 515.763977 Z" class="st11" style="fill: rgb(211, 117, 173);"/>
		<path d="M 662.27063 536.1698 H 704.488029 V 546.1982 H 662.27063 V 536.1698 Z" class="st12" style="fill: rgb(148, 196, 116);"/>
	</g>
</g>
<g>
	<path class="st14" d="M2146.7585,768.8446h-153.7069c-12.8855,0-23.3313-10.4458-23.3313-23.3314V546.1927&#10;&#9;&#9;c0-12.8856,10.4458-23.3314,23.3313-23.3314h153.7069c12.8855,0,23.3313,10.4458,23.3313,23.3314v199.3206&#10;&#9;&#9;C2170.0898,758.3988,2159.644,768.8446,2146.7585,768.8446z" style="fill: rgb(161, 166, 198);"/>
	<path class="st2" d="M1985.4561,560.6843v184.8289c0,4.188,3.4073,7.5954,7.5955,7.5954h153.707&#10;&#9;&#9;c4.188,0,7.5955-3.4074,7.5955-7.5954V560.6843H1985.4561z" style="fill: rgb(97, 104, 142);"/>
	<g>
		<path d="M 2007.615861 542.850281 A 7.3434 7.3434 0 0 1 2000.272461 550.193681 A 7.3434 7.3434 0 0 1 1992.929061 542.850281 A 7.3434 7.3434 0 0 1 2000.272461 535.506881 A 7.3434 7.3434 0 0 1 2007.615861 542.850281 Z" class="st15" style="fill: rgb(68, 75, 107);"/>
		<path d="M 2032.5309 542.850281 A 7.3434 7.3434 0 0 1 2025.1875 550.193681 A 7.3434 7.3434 0 0 1 2017.8441 542.850281 A 7.3434 7.3434 0 0 1 2025.1875 535.506881 A 7.3434 7.3434 0 0 1 2032.5309 542.850281 Z" class="st0" style="fill: rgb(127, 132, 173);"/>
		<path d="M 2057.445939 542.850281 A 7.3434 7.3434 0 0 1 2050.102539 550.193681 A 7.3434 7.3434 0 0 1 2042.759139 542.850281 A 7.3434 7.3434 0 0 1 2050.102539 535.506881 A 7.3434 7.3434 0 0 1 2057.445939 542.850281 Z" class="st16" style="fill: rgb(206, 212, 237);"/>
	</g>
	<g>
		<path d="M 1999.879028 582.26947 H 2041.098228 V 592.06067 H 1999.879028 V 582.26947 Z" class="st16" style="fill: rgb(206, 212, 237);"/>
		<path d="M 1999.879028 602.192688 H 2087.606331 V 611.983888 H 1999.879028 V 602.192688 Z" class="st16" style="fill: rgb(206, 212, 237);"/>
		<path d="M 2098.140625 602.192688 H 2132.715725 V 611.983888 H 2098.140625 V 602.192688 Z" class="st0" style="fill: rgb(127, 132, 173);"/>
		<path d="M 1999.879028 622.116028 H 2025.187529 V 631.907228 H 1999.879028 V 622.116028 Z" class="st15" style="fill: rgb(68, 75, 107);"/>
		<path d="M 2036.202637 622.116028 H 2064.876837 V 631.907228 H 2036.202637 V 622.116028 Z" class="st17" style="fill: rgb(114, 123, 160);"/>
		<path d="M 2069.905029 622.116028 H 2123.88493 V 631.907228 H 2069.905029 V 622.116028 Z" class="st16" style="fill: rgb(206, 212, 237);"/>
		<path d="M 1999.879028 642.039185 H 2041.098228 V 651.830384 H 1999.879028 V 642.039185 Z" class="st0" style="fill: rgb(127, 132, 173);"/>
		<path d="M 2023.133057 661.962524 H 2045.993757 V 671.753724 H 2023.133057 V 661.962524 Z" class="st0" style="fill: rgb(127, 132, 173);"/>
		<path d="M 2052.921875 661.962524 H 2104.391174 V 671.753724 H 2052.921875 V 661.962524 Z" class="st17" style="fill: rgb(114, 123, 160);"/>
		<path d="M 2113.41748 661.962524 H 2136.562281 V 671.753724 H 2113.41748 V 661.962524 Z" class="st0" style="fill: rgb(127, 132, 173);"/>
		<path d="M 2023.133057 681.885681 H 2057.445957 V 691.676881 H 2023.133057 V 681.885681 Z" class="st15" style="fill: rgb(68, 75, 107);"/>
		<path d="M 2062.030762 681.885681 H 2075.542062 V 691.676881 H 2062.030762 V 681.885681 Z" class="st17" style="fill: rgb(114, 123, 160);"/>
		<path d="M 2082.640381 681.885681 H 2109.286781 V 691.676881 H 2082.640381 V 681.885681 Z" class="st16" style="fill: rgb(206, 212, 237);"/>
		<path d="M 2116.474854 681.885681 H 2133.504854 V 691.676881 H 2116.474854 V 681.885681 Z" class="st17" style="fill: rgb(114, 123, 160);"/>
		<path d="M 2023.133057 701.809021 H 2045.993757 V 711.600221 H 2023.133057 V 701.809021 Z" class="st16" style="fill: rgb(206, 212, 237);"/>
		<path d="M 2053.446533 701.809021 H 2076.307234 V 711.600221 H 2053.446533 V 701.809021 Z" class="st15" style="fill: rgb(68, 75, 107);"/>
		<path d="M 1999.879028 721.732178 H 2041.098228 V 731.523377 H 1999.879028 V 721.732178 Z" class="st0" style="fill: rgb(127, 132, 173);"/>
	</g>
</g>
<g>
	<path class="st5" d="M858.7794,362.4484l16.5914-8.5464v2.4674l-13.9811,7.0082v0.0721l13.9811,7.0082v2.4674l-16.5914-8.5464&#10;&#9;&#9;V362.4484z" style="fill: rgb(239, 242, 249);"/>
	<path class="st5" d="M880.3403,347.5373h3.147v10.7988h0.0714c0.5007-0.8932,1.2871-1.6796,2.2524-2.2164&#10;&#9;&#9;c0.9299-0.5367,2.0381-0.8946,3.2184-0.8946c2.3239,0,6.043,1.4313,6.043,7.4021v10.2981h-3.147v-9.9402&#10;&#9;&#9;c0-2.7892-1.0367-5.1497-4.0048-5.1497c-2.0381,0-3.647,1.4313-4.2191,3.147c-0.179,0.4286-0.2143,0.8946-0.2143,1.502v10.4409&#10;&#9;&#9;h-3.147V347.5373z" style="fill: rgb(239, 242, 249);"/>
	<path class="st5" d="M903.8324,350.6482v4.9708h4.5055v2.3953h-4.5055v9.3328c0,2.1456,0.6075,3.3619,2.3599,3.3619&#10;&#9;&#9;c0.8224,0,1.4299-0.1082,1.8231-0.215l0.1436,2.3592c-0.6082,0.251-1.5735,0.4299-2.7891,0.4299&#10;&#9;&#9;c-1.466,0-2.6463-0.4647-3.3973-1.3232c-0.8939-0.9293-1.2157-2.4674-1.2157-4.5062v-9.4396h-2.6816v-2.3953h2.6816v-4.1483&#10;&#9;&#9;L903.8324,350.6482z" style="fill: rgb(239, 242, 249);"/>
	<path class="st5" d="M911.8774,360.3028c0-1.7878-0.0354-3.2538-0.1429-4.6837h2.7531l0.1428,2.7892h0.1075&#10;&#9;&#9;c0.9653-1.6449,2.5749-3.183,5.4355-3.183c2.3599,0,4.1476,1.4313,4.8987,3.4688h0.0714c0.5361-0.9653,1.2157-1.7157,1.9307-2.2524&#10;&#9;&#9;c1.0367-0.7864,2.181-1.2163,3.8259-1.2163c2.2885,0,5.6858,1.5021,5.6858,7.5089v10.1913h-3.0756v-9.7974&#10;&#9;&#9;c0-3.3259-1.2157-5.3273-3.7545-5.3273c-1.7878,0-3.1824,1.3218-3.7184,2.8599c-0.1429,0.4286-0.2504,1.0014-0.2504,1.5728v10.692&#10;&#9;&#9;h-3.0755v-10.3702c0-2.7531-1.2157-4.7545-3.611-4.7545c-1.9667,0-3.3973,1.5728-3.898,3.1456&#10;&#9;&#9;c-0.1782,0.4647-0.2504,1.0014-0.2504,1.5381v10.4409h-3.0748V360.3028z" style="fill: rgb(239, 242, 249);"/>
	<path class="st5" d="M941.6982,347.5373h3.147v25.3881h-3.147V347.5373z" style="fill: rgb(239, 242, 249);"/>
	<path class="st5" d="M966.4775,364.415l-16.5914,8.5103v-2.4674l14.0886-7.0082v-0.0721l-14.0886-7.0082v-2.4674l16.5914,8.5103&#10;&#9;&#9;V364.415z" style="fill: rgb(239, 242, 249);"/>
</g>
<path class="st2" d="M1344.2159,1181.1976c0-1.7201-0.1145-3.4132-0.3137-5.0806l7.9668-12.6661l-9.7423-16.8743l-14.9658,0.5669&#10;&#9;c-2.7001-2.0282-5.649-3.7411-8.7909-5.0885l-6.9819-13.2253h-19.4846l-6.9821,13.2255c-3.1416,1.3474-6.0905,3.0602-8.7906,5.0884&#10;&#9;l-14.9659-0.5669l-9.7423,16.8743l7.9669,12.6661c-0.1993,1.6674-0.3138,3.3605-0.3138,5.0806c0,1.7203,0.1145,3.4135,0.3138,5.0809&#10;&#9;l-7.9669,12.6661l9.7423,16.8743l14.9662-0.567c2.7,2.0281,5.6488,3.7407,8.7903,5.0881l6.9822,13.2257h19.4846l6.9822-13.2256&#10;&#9;c3.1416-1.3474,6.0903-3.0602,8.7904-5.0883l14.9661,0.567l9.7423-16.8743l-7.9668-12.6661&#10;&#9;C1344.1014,1184.6111,1344.2159,1182.918,1344.2159,1181.1976z M1301.6458,1207.5507c-14.531,0-26.3529-11.8219-26.3529-26.353&#10;&#9;c0-14.531,11.8219-26.3529,26.3529-26.3529c14.5316,0,26.353,11.8219,26.353,26.3529&#10;&#9;C1327.9988,1195.7288,1316.1774,1207.5507,1301.6458,1207.5507z" style="fill: rgb(97, 104, 142);"/>
<path class="st18" d="M1425.0741,1118.4584c-0.9171-0.9171-1.8809-1.7588-2.8761-2.5415l-2.5056-11.001l-14.1912-3.8025&#10;&#9;l-7.677,8.2816c-2.521,0.3582-5.0065,1.0172-7.4,1.974l-10.7739-3.3289l-10.3887,10.3887l3.3289,10.774&#10;&#9;c-0.9567,2.3934-1.6157,4.8789-1.974,7.3998l-8.2816,7.6771l3.8025,14.1912l11.001,2.5056c0.7827,0.9952,1.6244,1.959,2.5415,2.8761&#10;&#9;c0.9171,0.9172,1.881,1.7589,2.8762,2.5417l2.5056,11.0009l14.1912,3.8025l7.6772-8.2817c2.5208-0.3583,5.0061-1.0173,7.3995-1.9739&#10;&#9;l10.7742,3.3289l10.3887-10.3887l-3.3289-10.7742c0.9567-2.3934,1.6157-4.8788,1.9739-7.3997l8.2817-7.6771l-3.8025-14.1912&#10;&#9;l-11.0009-2.5056C1426.833,1120.3394,1425.9913,1119.3756,1425.0741,1118.4584z M1416.4276,1155.2062&#10;&#9;c-7.7476,7.7476-20.3538,7.7476-28.1013,0c-7.7474-7.7476-7.7474-20.3538,0-28.1013c7.7478-7.7478,20.3538-7.7474,28.1013,0&#10;&#9;C1424.1752,1134.8524,1424.1754,1147.4584,1416.4276,1155.2062z" style="fill: rgb(169, 176, 201);"/>
<path class="st5" d="M1864.75,350.2281c-0.9172-0.9171-1.8809-1.7588-2.8762-2.5415l-2.5055-11.0009l-14.1912-3.8026l-7.6771,8.2816&#10;&#9;c-2.5209,0.3582-5.0065,1.0173-7.4,1.974l-10.7739-3.3288l-10.3885,10.3886l3.3287,10.774&#10;&#9;c-0.9565,2.3934-1.6157,4.8789-1.974,7.3998l-8.2816,7.6772l3.8026,14.1912l11.0009,2.5056&#10;&#9;c0.7827,0.9953,1.6244,1.959,2.5415,2.8761c0.9172,0.9172,1.881,1.7589,2.8763,2.5417l2.5055,11.0009l14.1912,3.8026l7.6772-8.2818&#10;&#9;c2.5208-0.3582,5.0062-1.0173,7.3995-1.9738l10.7743,3.3289l10.3885-10.3886l-3.3287-10.7742&#10;&#9;c0.9565-2.3934,1.6156-4.8788,1.9739-7.3996l8.2817-7.6772l-3.8026-14.1912l-11.0009-2.5055&#10;&#9;C1866.5088,352.1091,1865.6671,351.1453,1864.75,350.2281z M1856.1034,386.976c-7.7476,7.7475-20.3538,7.7475-28.1012,0&#10;&#9;c-7.7476-7.7475-7.7476-20.3537,0-28.1013c7.7478-7.7478,20.3536-7.7475,28.1012,0S1863.8512,379.2281,1856.1034,386.976z" style="fill: rgb(239, 242, 249);"/>
<path d="M 2113.417236 762.701721 H 2141.047037 V 780.420321 H 2113.417236 V 762.701721 Z" class="st14" style="fill: rgb(161, 166, 198);"/>
<path class="st14" d="M1940.9702,1086.4746h-251.1377v-7.6106h251.1377c26.4768,0,48.0175-21.5406,48.0175-48.0178v-63.7557&#10;&#9;c0-30.6738,24.9552-55.6285,55.629-55.6285h43.8438c19.2803,0,34.9663-15.6857,34.9663-34.9665V771.5612h7.6106v104.9343&#10;&#9;c0,23.4773-19.0996,42.577-42.5769,42.577h-43.8438c-26.4778,0-48.0184,21.5407-48.0184,48.0179v63.7557&#10;&#9;C1996.5983,1061.5194,1971.644,1086.4746,1940.9702,1086.4746z" style="fill: rgb(161, 166, 198);"/>
<g>
	<path class="st10" d="M1695.1748,1160.1238h-140.6061c-11.7874,0-21.3428-9.5555-21.3428-21.3428V956.4489&#10;&#9;&#9;c0-11.7873,9.5554-21.3428,21.3428-21.3428h140.6061c11.7872,0,21.3428,9.5555,21.3428,21.3428v182.3321&#10;&#9;&#9;C1716.5176,1150.5682,1706.962,1160.1238,1695.1748,1160.1238z" style="fill: rgb(226, 232, 247);"/>
	<path class="st3" d="M1547.6205,969.7054v169.0756c0,3.8311,3.1169,6.948,6.948,6.948h140.6063&#10;&#9;&#9;c3.8312,0,6.9481-3.1169,6.9481-6.948V969.7054H1547.6205z" style="fill: rgb(96, 105, 160);"/>
	<g>
		<path d="M 1567.891572 953.391479 A 6.7175 6.7175 0 0 1 1561.174072 960.10898 A 6.7175 6.7175 0 0 1 1554.456572 953.391479 A 6.7175 6.7175 0 0 1 1561.174072 946.673979 A 6.7175 6.7175 0 0 1 1567.891572 953.391479 Z" class="st11" style="fill: rgb(211, 117, 173);"/>
		<path d="M 1590.683076 953.391479 A 6.7175 6.7175 0 0 1 1583.965576 960.10898 A 6.7175 6.7175 0 0 1 1577.248076 953.391479 A 6.7175 6.7175 0 0 1 1583.965576 946.673979 A 6.7175 6.7175 0 0 1 1590.683076 953.391479 Z" class="st12" style="fill: rgb(148, 196, 116);"/>
		<path d="M 1613.47458 953.391479 A 6.7175 6.7175 0 0 1 1606.75708 960.10898 A 6.7175 6.7175 0 0 1 1600.03958 953.391479 A 6.7175 6.7175 0 0 1 1606.75708 946.673979 A 6.7175 6.7175 0 0 1 1613.47458 953.391479 Z" class="st13" style="fill: rgb(204, 193, 109);"/>
	</g>
	<path class="st11" d="M1572.3246,1062.745c-0.3674,0-0.7045-0.2443-0.8068-0.6161c-0.1227-0.4459,0.1392-0.9073,0.585-1.03&#10;&#9;&#9;c6.4446-1.7725,12.0022-7.2222,16.5199-16.1975c1.1487-2.2827,2.2074-4.6798,3.2317-6.9984&#10;&#9;&#9;c2.254-5.1044,4.5848-10.3826,8.0652-14.902c4.9589-6.44,13.744-11.7636,22.184-9.1341c4.791,1.491,8.9021,5.2938,12.5691,11.6257&#10;&#9;&#9;c0.9465,1.6334,1.8236,3.3356,2.6729,4.9813c1.6846,3.2655,3.4255,6.6425,5.7327,9.5166c3.0345,3.7822,8.2322,7.526,13.7717,6.6755&#10;&#9;&#9;c5.1879-0.7957,8.624-4.9927,12.2623-9.436c3.077-3.7577,6.2588-7.6434,10.6898-9.5509c0.4222-0.182,0.918,0.0127,1.1012,0.4381&#10;&#9;&#9;c0.1825,0.425-0.0139,0.918-0.4385,1.1008c-4.0564,1.7458-7.1063,5.4713-10.0558,9.0735&#10;&#9;&#9;c-3.6783,4.4924-7.4827,9.1375-13.3054,10.0305c-6.2268,0.9551-12.0045-3.1351-15.3328-7.2827&#10;&#9;&#9;c-2.4119-3.0055-4.1921-6.4584-5.9143-9.7972c-0.8395-1.6282-1.7083-3.3119-2.6337-4.91&#10;&#9;&#9;c-3.4468-5.9508-7.2471-9.5052-11.6167-10.8658c-7.6733-2.3869-15.7533,2.5767-20.3595,8.5573&#10;&#9;&#9;c-3.3568,4.3586-5.6459,9.5428-7.8599,14.5564c-1.0325,2.3374-2.0994,4.7542-3.2668,7.0748&#10;&#9;&#9;c-4.7402,9.4164-10.6521,15.1565-17.572,17.0599C1572.4735,1062.7351,1572.3982,1062.745,1572.3246,1062.745z" style="fill: rgb(211, 117, 173);"/>
	<path d="M 1689.832763671875 1078.452880859375 L 1559.9169921875 1078.452880859375 L 1559.9169921875 992.6112060546875 L 1562.4302978515625 992.6112060546875 L 1562.4302978515625 1075.9395751953125 L 1689.832763671875 1075.9395751953125 Z" class="st7" style="fill: rgb(218, 225, 242);"/>
	<path d="M 1561.174072 1093.113892 H 1593.488274 V 1102.399092 H 1561.174072 V 1093.113892 Z" class="st7" style="fill: rgb(218, 225, 242);"/>
	<path d="M 1600.039551 1093.113892 H 1632.353752 V 1102.399092 H 1600.039551 V 1093.113892 Z" class="st9" style="fill: rgb(163, 170, 229);"/>
	<path d="M 1639.414917 1093.113892 H 1655.572018 V 1102.398992 H 1639.414917 V 1093.113892 Z" class="st13" style="fill: rgb(204, 193, 109);"/>
	<path d="M 1561.174072 1106.021973 H 1593.488274 V 1115.307173 H 1561.174072 V 1106.021973 Z" class="st7" style="fill: rgb(218, 225, 242);"/>
	<path d="M 1600.039551 1106.021973 H 1632.353752 V 1115.307173 H 1600.039551 V 1106.021973 Z" class="st11" style="fill: rgb(211, 117, 173);"/>
	<path d="M 1639.414917 1106.021973 H 1655.572018 V 1115.307073 H 1639.414917 V 1106.021973 Z" class="st13" style="fill: rgb(204, 193, 109);"/>
	<path d="M 1561.174072 1118.929932 H 1593.488274 V 1128.215132 H 1561.174072 V 1118.929932 Z" class="st7" style="fill: rgb(218, 225, 242);"/>
	<path d="M 1600.039551 1118.929932 H 1632.353752 V 1128.215132 H 1600.039551 V 1118.929932 Z" class="st9" style="fill: rgb(163, 170, 229);"/>
	<path d="M 1639.414917 1118.929932 H 1655.572018 V 1128.215032 H 1639.414917 V 1118.929932 Z" class="st13" style="fill: rgb(204, 193, 109);"/>
</g>
<path d="M 1934.491119 1729.099609 A 253.715607 35.793201 0 0 1 1680.775513 1764.892811 A 253.715607 35.793201 0 0 1 1427.059906 1729.099609 A 253.715607 35.793201 0 0 1 1680.775513 1693.306408 A 253.715607 35.793201 0 0 1 1934.491119 1729.099609 Z" class="st1" style="fill: rgb(75, 83, 117);"/>
<g>
	<path class="st19" d="M1490.8715,898.3749c-9.7787,0-19.5626-3.6927-27.0798-11.0968l-145.1453-142.9395&#10;&#9;&#9;c-15.1882-14.9573-15.3751-39.3945-0.4183-54.5822c14.9574-15.1877,39.3944-15.3757,54.5822-0.4183l145.1454,142.9406&#10;&#9;&#9;c15.1882,14.9568,15.3751,39.3939,0.4183,54.5822C1510.8206,894.5303,1500.8486,898.3749,1490.8715,898.3749z" style="fill: rgb(245, 152, 152);"/>
	<path class="st19" d="M1490.8428,898.3776c-7.9578,0-15.9845-2.4521-22.8806-7.5384&#10;&#9;&#9;c-17.1545-12.6539-20.8027-36.8176-8.1488-53.9722l40.8655-55.4013c12.6528-17.153,36.8159-20.8033,53.9717-8.1494&#10;&#9;&#9;c17.1545,12.6533,20.8027,36.8176,8.1488,53.9722l-40.8655,55.4013C1514.3668,892.9483,1502.6824,898.3776,1490.8428,898.3776z" style="fill: rgb(245, 152, 152);"/>
	<path d="M 1582.674313 804.377075 A 50.935299 50.935299 0 0 1 1531.739014 855.312374 A 50.935299 50.935299 0 0 1 1480.803715 804.377075 A 50.935299 50.935299 0 0 1 1531.739014 753.441776 A 50.935299 50.935299 0 0 1 1582.674313 804.377075 Z" class="st20" style="fill: rgb(255, 255, 255);"/>
	<path class="st21" d="M1531.7094,842.9757c-8.0236,0-16.1151-2.4925-23.042-7.6573&#10;&#9;&#9;c-17.0887-12.7419-20.6117-36.9248-7.8696-54.0131l111.8899-150.0548c12.743-17.0888,36.9275-20.6095,54.0131-7.8691&#10;&#9;&#9;c17.0887,12.742,20.6116,36.9249,7.8696,54.0131l-111.8899,150.0548C1555.1028,837.6112,1543.4799,842.9757,1531.7094,842.9757z" style="fill: rgb(209, 213, 229);"/>
	<path d="M 1598.5086669921875 1008.2152709960938 L 1600.68310546875 1665.1572265625 L 1686.5740966796875 1665.1572265625 L 1711.580322265625 1015.825927734375 Z" class="st22" style="fill: rgb(47, 50, 76);"/>
	<path class="st23" d="M1686.5741,1729.0996h-161.9968v-16.9011c0-25.9801,21.0612-47.0413,47.0413-47.0413h114.9556V1729.0996z" style="fill: rgb(122, 59, 37);"/>
	<path class="st20" d="M1829.2526,690.3597v297.2341h-235.3445V690.3597c0-48.8898,39.6261-88.5273,88.5159-88.5273h58.3126&#10;&#9;&#9;C1789.6263,601.8325,1829.2526,641.4699,1829.2526,690.3597z" style="fill: rgb(255, 255, 255);"/>
	<g>
		<path d="M 1762.043106 619.982422 A 55.413101 55.413101 0 0 1 1706.630005 675.395523 A 55.413101 55.413101 0 0 1 1651.216904 619.982422 A 55.413101 55.413101 0 0 1 1706.630005 564.569321 A 55.413101 55.413101 0 0 1 1762.043106 619.982422 Z" class="st21" style="fill: rgb(209, 213, 229);"/>
		<g>
			<g>
				<path class="st21" d="M1710.2919,672.1986l25.2808,14.0989c13.046,7.2756,28.9827-2.723,28.1018-17.6346&#10;&#9;&#9;&#9;&#9;&#9;c-1.5056-25.4853-3.2977-55.6923-3.2977-55.0742C1760.3767,614.6542,1710.2919,672.1986,1710.2919,672.1986z" style="fill: rgb(209, 213, 229);"/>
				<path class="st21" d="M1702.9681,672.1986l-25.2808,14.0989c-13.046,7.2756-28.9828-2.723-28.1018-17.6346&#10;&#9;&#9;&#9;&#9;&#9;c1.5055-25.4853,3.2976-55.6923,3.2976-55.0742C1652.8832,614.6542,1702.9681,672.1986,1702.9681,672.1986z" style="fill: rgb(209, 213, 229);"/>
			</g>
		</g>
	</g>
	<path class="st19" d="M1659.9937,470.7356v138.6214c0,26.1199,21.1744,47.2943,47.2943,47.2943h0.0001&#10;&#9;&#9;c26.1199,0,47.2943-21.1744,47.2943-47.2943V470.7356H1659.9937z" style="fill: rgb(245, 152, 152);"/>
	<g>
		<path class="st24" d="M1553.4786,394.4409h76.3112v93.2692h-11.6586c-35.7067,0-64.6526-28.9459-64.6526-64.6525V394.4409z" style="fill: rgb(216, 179, 104);"/>
		<path class="st25" d="M1629.7898,565.6254h-73.2174v-34.2885c0-11.2483,9.1185-20.3669,20.3668-20.3669h52.8506V565.6254z" style="fill: rgb(255, 219, 138);"/>
		<path class="st19" d="M1561.7285,403.0345V521.798c0,35.5959,28.8562,64.452,64.452,64.452h125.2947V403.0345&#10;&#9;&#9;&#9;c0-23.5407-19.0836-42.6242-42.6243-42.6242h-104.4982C1580.812,360.4102,1561.7285,379.4938,1561.7285,403.0345z" style="fill: rgb(245, 152, 152);"/>
		<path class="st25" d="M1713.3196,344.9418h23.4606c18.937,0,34.2885,15.3514,34.2885,34.2885v158.8097&#10;&#9;&#9;&#9;c0,6.692-5.4249,12.1169-12.1169,12.1169h-1.8047c-24.2052,0-43.8274-19.6222-43.8274-43.8273V344.9418z" style="fill: rgb(255, 219, 138);"/>
		<path d="M 1682.38269 378.972412 H 1748.381493 V 505.813911 H 1682.38269 V 378.972412 Z" class="st25" style="fill: rgb(255, 219, 138);"/>
		<path d="M 1733.944324 502.720215 A 30.937 30.937 0 0 1 1703.007324 533.657215 A 30.937 30.937 0 0 1 1672.070324 502.720215 A 30.937 30.937 0 0 1 1703.007324 471.783215 A 30.937 30.937 0 0 1 1733.944324 502.720215 Z" class="st19" style="fill: rgb(245, 152, 152);"/>
		<path class="st25" d="M1657.8909,601.7184h-61.3583c-22.0695,0-39.9602-17.8908-39.9602-39.9602v-20.5387&#10;&#9;&#9;&#9;c0-12.1501,9.8496-21.9996,21.9996-21.9996h79.3188c22.0695,0,39.9602,17.8908,39.9602,39.9602v2.5781&#10;&#9;&#9;&#9;C1697.8511,583.8276,1679.9603,601.7184,1657.8909,601.7184z" style="fill: rgb(255, 219, 138);"/>
		<path class="st19" d="M1632.5045,579.0314h-40.2584c-7.1724,0-12.9866-5.8143-12.9866-12.9866v-14.2853&#10;&#9;&#9;&#9;c0-7.1723,5.8142-12.9866,12.9866-12.9866h40.2584c7.1724,0,12.9867,5.8143,12.9867,12.9866v14.2853&#10;&#9;&#9;&#9;C1645.4912,573.217,1639.6769,579.0314,1632.5045,579.0314z" style="fill: rgb(245, 152, 152);"/>
		<path class="st25" d="M1662.7893,385.1598v2.4854c11.7758,7.5056,19.5934,20.6708,19.5934,35.6702&#10;&#9;&#9;&#9;s-7.8176,28.1646-19.5934,35.6702v93.2337h25.7808V385.1598H1662.7893z" style="fill: rgb(255, 219, 138);"/>
		<path d="M 1558.634888 344.941803 H 1731.88179 V 404.753204 H 1558.634888 V 344.941803 Z" class="st25" style="fill: rgb(255, 219, 138);"/>
		<path class="st25" d="M1558.6349,404.7532c-14.4373,0-59.8115-48.4679-2.0625-93.8421&#10;&#9;&#9;&#9;c-1.0313,14.4373,14.4373,22.6871,20.6246,24.7496c-6.1874-9.2811-7.2186-38.1556,30.937-53.6241&#10;&#9;&#9;&#9;c-1.0313,19.5934,16.4996,42.2805,26.812,47.4367c0-7.2186,6.1874-23.7184,34.0306-26.812c0,13.406,8.2498,30.937,56.7177,47.4367&#10;&#9;&#9;&#9;c-2.0624,24.7495-155.7159,40.218-155.7159,40.218L1558.6349,404.7532z" style="fill: rgb(255, 219, 138);"/>
	</g>
	<path class="st26" d="M1829.2526,974.5112v28.5598c0,64.9814-52.6794,117.6722-117.6722,117.6722&#10;&#9;&#9;c-64.9929,0-117.6722-52.6908-117.6722-117.6722v-28.5598H1829.2526z" style="fill: rgb(64, 66, 99);"/>
	<path d="M 1713.319580078125 1007.6716918945312 L 1740.391845703125 1665.1572265625 L 1826.28271484375 1665.1572265625 L 1826.28271484375 1007.6716918945312 Z" class="st26" style="fill: rgb(64, 66, 99);"/>
	<path class="st27" d="M1826.2827,1729.0996h-161.9968v-16.9011c0-25.9801,21.0612-47.0413,47.0413-47.0413h114.9556V1729.0996z" style="fill: rgb(150, 77, 45);"/>
	<path d="M 1375.808441 701.979675 A 62.877899 51.462101 0 0 1 1312.930542 753.441776 A 62.877899 51.462101 0 0 1 1250.052643 701.979675 A 62.877899 51.462101 0 0 1 1312.930542 650.517574 A 62.877899 51.462101 0 0 1 1375.808441 701.979675 Z" class="st19" style="fill: rgb(245, 152, 152);"/>
	<path class="st19" d="M1305.5009,689.8392h-76.1058c-10.5081,0-19.0265-8.5184-19.0265-19.0265&#10;&#9;&#9;c0-10.5081,8.5184-19.0264,19.0265-19.0264h76.1058c10.5082,0,19.0265,8.5184,19.0265,19.0264&#10;&#9;&#9;C1324.5273,681.3208,1316.009,689.8392,1305.5009,689.8392z" style="fill: rgb(245, 152, 152);"/>
	<path class="st21" d="M1853.0348,852.2442c-16.3901,0-31.5933-10.5214-36.7927-26.9805l-49.594-156.9859&#10;&#9;&#9;c-6.4215-20.326,4.85-42.009,25.176-48.4304c20.326-6.4188,42.01,4.8511,48.4304,25.1772l49.5941,156.9858&#10;&#9;&#9;c6.4214,20.326-4.8501,42.009-25.1761,48.4304C1860.8057,851.6624,1856.8857,852.2442,1853.0348,852.2442z" style="fill: rgb(209, 213, 229);"/>
	<path d="M 1903.981197 813.637024 A 50.935299 50.935299 0 0 1 1853.045898 864.572323 A 50.935299 50.935299 0 0 1 1802.1106 813.637024 A 50.935299 50.935299 0 0 1 1853.045898 762.701725 A 50.935299 50.935299 0 0 1 1903.981197 813.637024 Z" class="st20" style="fill: rgb(255, 255, 255);"/>
	<path class="st19" d="M1870.8391,915.2672c-16.8381,0-32.3152-11.1053-37.1207-28.1086l-15.3135-54.1777&#10;&#9;&#9;c-5.7982-20.5124,6.1305-41.8412,26.6423-47.6394c20.5161-5.7966,41.8423,6.1305,47.6394,26.6434l15.3136,54.1777&#10;&#9;&#9;c5.7982,20.5124-6.1305,41.8412-26.6423,47.6395C1877.8478,914.7937,1874.3142,915.2672,1870.8391,915.2672z" style="fill: rgb(245, 152, 152);"/>
	<path class="st19" d="M1792.1724,921.7827c-19.8706,0-36.7491-15.2499-38.4214-35.4081&#10;&#9;&#9;c-1.7614-21.2434,14.031-39.8929,35.2744-41.6549l78.6434-6.5234c21.2263-1.7726,39.8929,14.0299,41.6554,35.2739&#10;&#9;&#9;c1.7615,21.2433-14.031,39.8929-35.2743,41.6548l-78.6434,6.5234C1794.3213,921.7386,1793.2426,921.7827,1792.1724,921.7827z" style="fill: rgb(245, 152, 152);"/>
	<path d="M 1847.302315 879.922485 A 67.045601 44.036098 0 0 1 1780.256714 923.958584 A 67.045601 44.036098 0 0 1 1713.211113 879.922485 A 67.045601 44.036098 0 0 1 1780.256714 835.886387 A 67.045601 44.036098 0 0 1 1847.302315 879.922485 Z" class="st19" style="fill: rgb(245, 152, 152);"/>
	<g>
		<path class="st28" d="M1800.0184,744.0217h-175.9469c-1.4869-0.2107-3.0435-0.0897-4.5615,0.4344&#10;&#9;&#9;&#9;c-5.108,1.7646-7.8176,7.3361-6.053,12.4442l37.4541,108.3962c1.3994,4.0495,5.1919,6.5919,9.2478,6.5919&#10;&#9;&#9;&#9;c1.0607,0,2.1384-0.1736,3.1969-0.5394h178.697L1800.0184,744.0217z" style="fill: rgb(100, 104, 132);"/>
		<path class="st29" d="M1838.856,871.8883c-4.0559,0-7.8485-2.5424-9.2478-6.5919l-37.4541-108.3962&#10;&#9;&#9;&#9;c-1.7646-5.108,0.9449-10.6796,6.053-12.4442c5.1123-1.7652,10.6801,0.9454,12.4447,6.0524l37.4541,108.3962&#10;&#9;&#9;&#9;c1.7646,5.1081-0.9449,10.6796-6.053,12.4442C1840.9943,871.7147,1839.9166,871.8883,1838.856,871.8883z" style="fill: rgb(80, 83, 114);"/>
		<g>
			<path class="st21" d="M1843.8689,880.571h-188.6787c-6.6655,0-12.0691-5.4035-12.0691-12.0691l0,0&#10;&#9;&#9;&#9;&#9;c0-6.6655,5.4036-12.069,12.0691-12.069h188.6787c6.6655,0,12.069,5.4035,12.069,12.069l0,0&#10;&#9;&#9;&#9;&#9;C1855.9379,875.1675,1850.5344,880.571,1843.8689,880.571z" style="fill: rgb(209, 213, 229);"/>
			<path class="st30" d="M1892.2029,880.571h-47.5817c-6.6655,0-12.069-5.4035-12.069-12.0691l0,0&#10;&#9;&#9;&#9;&#9;c0-6.6655,5.4034-12.069,12.069-12.069h47.5817c6.6655,0,12.0691,5.4035,12.0691,12.069l0,0&#10;&#9;&#9;&#9;&#9;C1904.272,875.1675,1898.8684,880.571,1892.2029,880.571z" style="fill: rgb(168, 175, 198);"/>
		</g>
		<path d="M 1729.082574 807.905884 A 13.4544 13.4544 0 0 1 1715.628174 821.360284 A 13.4544 13.4544 0 0 1 1702.173774 807.905884 A 13.4544 13.4544 0 0 1 1715.628174 794.451484 A 13.4544 13.4544 0 0 1 1729.082574 807.905884 Z" class="st29" style="fill: rgb(80, 83, 114);"/>
		<path class="st29" d="M1892.2051,871.8883h-12.254c-2.0203,0-3.6581-1.6378-3.6581-3.658l0,0c0-2.0203,1.6378-3.658,3.6581-3.658&#10;&#9;&#9;&#9;h12.254c2.0203,0,3.6581,1.6378,3.6581,3.658l0,0C1895.8632,870.2505,1894.2253,871.8883,1892.2051,871.8883z" style="fill: rgb(80, 83, 114);"/>
		<path class="st29" d="M1865.3,871.8883h-12.2542c-2.0203,0-3.658-1.6378-3.658-3.658l0,0c0-2.0203,1.6377-3.658,3.658-3.658&#10;&#9;&#9;&#9;H1865.3c2.0201,0,3.658,1.6378,3.658,3.658l0,0C1868.958,870.2505,1867.3202,871.8883,1865.3,871.8883z" style="fill: rgb(80, 83, 114);"/>
	</g>
	<path d="M 1593.908081 982.84668 H 1829.252579 V 1003.071079 H 1593.908081 V 982.84668 Z" class="st27" style="fill: rgb(150, 77, 45);"/>
	<path d="M 1657.400146 974.51123 H 1704.150848 V 1008.215229 H 1657.400146 V 974.51123 Z" class="st31" style="fill: rgb(239, 241, 249);"/>
	<path d="M 1720.821655 977.772888 H 1736.042855 V 1014.194988 H 1720.821655 V 977.772888 Z" class="st26" style="fill: rgb(64, 66, 99);"/>
	<path d="M 1625.145752 977.772888 H 1640.366952 V 1014.194988 H 1625.145752 V 977.772888 Z" class="st26" style="fill: rgb(64, 66, 99);"/>
	<path d="M 1780.256714 977.772888 H 1795.477914 V 1014.194988 H 1780.256714 V 977.772888 Z" class="st26" style="fill: rgb(64, 66, 99);"/>
</g>
<g>
	<path class="st2" d="M1195.6152,1431.7704h-123.1381c-9.5812,0-17.3765-7.7948-17.3765-17.376v-76.1058&#10;&#9;&#9;c0-9.5812,7.7953-17.376,17.3765-17.376h123.1381c9.5812,0,17.3755,7.7948,17.3755,17.376v76.1058&#10;&#9;&#9;C1212.9907,1423.9756,1205.1964,1431.7704,1195.6152,1431.7704z M1072.4772,1328.5232c-5.3851,0-9.7659,4.3807-9.7659,9.7654&#10;&#9;&#9;v76.1058c0,5.3846,4.3807,9.7655,9.7659,9.7655h123.1381c5.384,0,9.7649-4.3809,9.7649-9.7655v-76.1058&#10;&#9;&#9;c0-5.3846-4.3809-9.7654-9.7649-9.7654H1072.4772z" style="fill: rgb(97, 104, 142);"/>
	<g>
		
			<path d="M 1172.018433 1340.015015 H 1179.628932 V 1376.347214 H 1172.018433 V 1340.015015 Z" transform="matrix(0.7071 -0.7071 0.7071 0.7071 -615.9896 1229.2535)" class="st2" style="fill: rgb(97, 104, 142);"/>
		
			<path d="M 1157.657593 1354.375854 H 1193.989792 V 1361.986354 H 1157.657593 V 1354.375854 Z" transform="matrix(0.7072 -0.707 0.707 0.7072 -615.9756 1229.0582)" class="st2" style="fill: rgb(97, 104, 142);"/>
	</g>
</g>
<path d="M 327.6628723144531 846.8995971679688" style="fill: rgb(43, 79, 151); fill-opacity: 1; stroke: rgb(0, 0, 0); stroke-opacity: 1; stroke-width: 0; paint-order: fill;"/><path d="M 273.48162841796875 715.9616088867188 L 228.3306121826172 971.8173828125" style="fill: rgb(43, 79, 151); fill-opacity: 1; stroke: rgb(0, 0, 0); stroke-opacity: 1; stroke-width: 0; paint-order: fill;"/></svg>